<mxfile host="app.diagrams.net" modified="2024-03-03T20:20:55.567Z" agent="Mozilla/5.0 (Windows NT 10.0; Win64; x64; rv:123.0) Gecko/20100101 Firefox/123.0" etag="G3lHAYMpe8JDlOe-4cdr" version="24.0.1" type="google" pages="3">
  <diagram name="Felhasználói" id="hYD5U8tpnZjgWVaeMjtl">
    <mxGraphModel grid="1" page="1" gridSize="10" guides="1" tooltips="1" connect="1" arrows="1" fold="1" pageScale="1" pageWidth="827" pageHeight="1169" math="0" shadow="0">
      <root>
        <mxCell id="0" />
        <mxCell id="1" parent="0" />
        <mxCell id="X6ehyYo9V5bhcPVwCmyl-1" value="&lt;div&gt;Felhasználói&lt;/div&gt;&lt;div&gt;főmenü&lt;br&gt;&lt;/div&gt;" style="rounded=0;whiteSpace=wrap;html=1;" vertex="1" parent="1">
          <mxGeometry x="340" y="70" width="120" height="60" as="geometry" />
        </mxCell>
        <mxCell id="X6ehyYo9V5bhcPVwCmyl-6" value="Saját fiók" style="rounded=0;whiteSpace=wrap;html=1;" vertex="1" parent="1">
          <mxGeometry x="610" y="240" width="120" height="60" as="geometry" />
        </mxCell>
        <mxCell id="Cjwkc8-t4BwCz8PGgc_j-1" value="Kijelentkezés" style="rounded=1;whiteSpace=wrap;html=1;" vertex="1" parent="1">
          <mxGeometry x="520" y="390" width="120" height="60" as="geometry" />
        </mxCell>
        <mxCell id="Cjwkc8-t4BwCz8PGgc_j-2" value="Fiók adatok" style="rounded=1;whiteSpace=wrap;html=1;" vertex="1" parent="1">
          <mxGeometry x="700" y="390" width="120" height="60" as="geometry" />
        </mxCell>
        <mxCell id="Cjwkc8-t4BwCz8PGgc_j-3" value="" style="endArrow=none;html=1;rounded=0;entryX=0.5;entryY=1;entryDx=0;entryDy=0;" edge="1" parent="1" target="X6ehyYo9V5bhcPVwCmyl-6">
          <mxGeometry width="50" height="50" relative="1" as="geometry">
            <mxPoint x="670" y="360" as="sourcePoint" />
            <mxPoint x="710" y="330" as="targetPoint" />
          </mxGeometry>
        </mxCell>
        <mxCell id="Cjwkc8-t4BwCz8PGgc_j-4" value="" style="endArrow=none;html=1;rounded=0;" edge="1" parent="1">
          <mxGeometry width="50" height="50" relative="1" as="geometry">
            <mxPoint x="580" y="360" as="sourcePoint" />
            <mxPoint x="760" y="360" as="targetPoint" />
          </mxGeometry>
        </mxCell>
        <mxCell id="Cjwkc8-t4BwCz8PGgc_j-5" value="" style="endArrow=none;html=1;rounded=0;exitX=0.5;exitY=0;exitDx=0;exitDy=0;" edge="1" parent="1" source="Cjwkc8-t4BwCz8PGgc_j-1">
          <mxGeometry width="50" height="50" relative="1" as="geometry">
            <mxPoint x="410" y="430" as="sourcePoint" />
            <mxPoint x="580" y="360" as="targetPoint" />
          </mxGeometry>
        </mxCell>
        <mxCell id="Cjwkc8-t4BwCz8PGgc_j-6" value="" style="endArrow=none;html=1;rounded=0;exitX=0.5;exitY=0;exitDx=0;exitDy=0;" edge="1" parent="1">
          <mxGeometry width="50" height="50" relative="1" as="geometry">
            <mxPoint x="759.66" y="390" as="sourcePoint" />
            <mxPoint x="759.66" y="360" as="targetPoint" />
          </mxGeometry>
        </mxCell>
        <mxCell id="Cjwkc8-t4BwCz8PGgc_j-7" value="MENU01" style="text;html=1;align=center;verticalAlign=middle;whiteSpace=wrap;rounded=0;" vertex="1" parent="1">
          <mxGeometry x="420" y="120" width="60" height="30" as="geometry" />
        </mxCell>
        <mxCell id="Cjwkc8-t4BwCz8PGgc_j-8" value="&lt;div&gt;MENU02&lt;/div&gt;" style="text;html=1;align=center;verticalAlign=middle;whiteSpace=wrap;rounded=0;" vertex="1" parent="1">
          <mxGeometry x="140" y="290" width="60" height="30" as="geometry" />
        </mxCell>
        <mxCell id="Cjwkc8-t4BwCz8PGgc_j-9" value="MENU03" style="text;html=1;align=center;verticalAlign=middle;whiteSpace=wrap;rounded=0;" vertex="1" parent="1">
          <mxGeometry x="320" y="290" width="60" height="30" as="geometry" />
        </mxCell>
        <mxCell id="Cjwkc8-t4BwCz8PGgc_j-10" value="MENU04" style="text;html=1;align=center;verticalAlign=middle;whiteSpace=wrap;rounded=0;" vertex="1" parent="1">
          <mxGeometry x="500" y="290" width="60" height="30" as="geometry" />
        </mxCell>
        <mxCell id="Cjwkc8-t4BwCz8PGgc_j-11" value="MENU05" style="text;html=1;align=center;verticalAlign=middle;whiteSpace=wrap;rounded=0;" vertex="1" parent="1">
          <mxGeometry x="680" y="290" width="60" height="30" as="geometry" />
        </mxCell>
        <mxCell id="Cjwkc8-t4BwCz8PGgc_j-12" value="MENU06" style="text;html=1;align=center;verticalAlign=middle;whiteSpace=wrap;rounded=0;" vertex="1" parent="1">
          <mxGeometry x="770" y="440" width="60" height="30" as="geometry" />
        </mxCell>
        <mxCell id="Cjwkc8-t4BwCz8PGgc_j-13" value="DIAL01" style="text;html=1;align=center;verticalAlign=middle;whiteSpace=wrap;rounded=0;" vertex="1" parent="1">
          <mxGeometry x="590" y="440" width="60" height="30" as="geometry" />
        </mxCell>
        <mxCell id="Cjwkc8-t4BwCz8PGgc_j-14" value="" style="endArrow=none;html=1;rounded=0;exitX=0.5;exitY=0;exitDx=0;exitDy=0;" edge="1" parent="1">
          <mxGeometry width="50" height="50" relative="1" as="geometry">
            <mxPoint x="130" y="240" as="sourcePoint" />
            <mxPoint x="130" y="200" as="targetPoint" />
          </mxGeometry>
        </mxCell>
        <mxCell id="Cjwkc8-t4BwCz8PGgc_j-15" value="" style="endArrow=none;html=1;rounded=0;exitX=0.5;exitY=0;exitDx=0;exitDy=0;" edge="1" parent="1">
          <mxGeometry width="50" height="50" relative="1" as="geometry">
            <mxPoint x="309.65999999999997" y="240" as="sourcePoint" />
            <mxPoint x="309.65999999999997" y="200" as="targetPoint" />
          </mxGeometry>
        </mxCell>
        <mxCell id="Cjwkc8-t4BwCz8PGgc_j-16" value="" style="endArrow=none;html=1;rounded=0;exitX=0.5;exitY=0;exitDx=0;exitDy=0;" edge="1" parent="1">
          <mxGeometry width="50" height="50" relative="1" as="geometry">
            <mxPoint x="490" y="240" as="sourcePoint" />
            <mxPoint x="490" y="200" as="targetPoint" />
          </mxGeometry>
        </mxCell>
        <mxCell id="Cjwkc8-t4BwCz8PGgc_j-17" value="" style="endArrow=none;html=1;rounded=0;exitX=0.5;exitY=0;exitDx=0;exitDy=0;" edge="1" parent="1">
          <mxGeometry width="50" height="50" relative="1" as="geometry">
            <mxPoint x="669.6600000000001" y="240" as="sourcePoint" />
            <mxPoint x="669.6600000000001" y="200" as="targetPoint" />
          </mxGeometry>
        </mxCell>
        <mxCell id="Cjwkc8-t4BwCz8PGgc_j-18" value="" style="endArrow=none;html=1;rounded=0;" edge="1" parent="1">
          <mxGeometry width="50" height="50" relative="1" as="geometry">
            <mxPoint x="130" y="200" as="sourcePoint" />
            <mxPoint x="670" y="200" as="targetPoint" />
          </mxGeometry>
        </mxCell>
        <mxCell id="Cjwkc8-t4BwCz8PGgc_j-19" value="" style="endArrow=none;html=1;rounded=0;entryX=0.5;entryY=1;entryDx=0;entryDy=0;" edge="1" parent="1" target="X6ehyYo9V5bhcPVwCmyl-1">
          <mxGeometry width="50" height="50" relative="1" as="geometry">
            <mxPoint x="400" y="200" as="sourcePoint" />
            <mxPoint x="290" y="380" as="targetPoint" />
          </mxGeometry>
        </mxCell>
        <mxCell id="Cjwkc8-t4BwCz8PGgc_j-21" value="Könyvjelzők" style="rounded=1;whiteSpace=wrap;html=1;" vertex="1" parent="1">
          <mxGeometry x="70" y="240" width="120" height="60" as="geometry" />
        </mxCell>
        <mxCell id="Cjwkc8-t4BwCz8PGgc_j-22" value="Saját fájlok" style="rounded=1;whiteSpace=wrap;html=1;" vertex="1" parent="1">
          <mxGeometry x="250" y="240" width="120" height="60" as="geometry" />
        </mxCell>
        <mxCell id="Cjwkc8-t4BwCz8PGgc_j-23" value="Publikus fájlok" style="rounded=1;whiteSpace=wrap;html=1;" vertex="1" parent="1">
          <mxGeometry x="430" y="240" width="120" height="60" as="geometry" />
        </mxCell>
      </root>
    </mxGraphModel>
  </diagram>
  <diagram id="E2iWhJ_u_OlQXGVVYfkE" name="Vendég">
    <mxGraphModel grid="1" page="1" gridSize="10" guides="1" tooltips="1" connect="1" arrows="1" fold="1" pageScale="1" pageWidth="827" pageHeight="1169" math="0" shadow="0">
      <root>
        <mxCell id="0" />
        <mxCell id="1" parent="0" />
        <mxCell id="IYNmw7wEzGc-1rU78w_l-1" value="&lt;div&gt;Vendég&lt;/div&gt;&lt;div&gt;főmenü&lt;br&gt;&lt;/div&gt;" style="rounded=0;whiteSpace=wrap;html=1;" vertex="1" parent="1">
          <mxGeometry x="330" y="70" width="120" height="60" as="geometry" />
        </mxCell>
        <mxCell id="Zg42Y_eCuo0xbQlqRmkv-1" value="MENU07" style="text;html=1;align=center;verticalAlign=middle;whiteSpace=wrap;rounded=0;" vertex="1" parent="1">
          <mxGeometry x="400" y="120" width="60" height="30" as="geometry" />
        </mxCell>
        <mxCell id="Zg42Y_eCuo0xbQlqRmkv-2" value="&lt;div&gt;Publikus fájlok&lt;/div&gt;" style="rounded=1;whiteSpace=wrap;html=1;" vertex="1" parent="1">
          <mxGeometry x="150" y="220" width="120" height="60" as="geometry" />
        </mxCell>
        <mxCell id="achzAib0qAq2A53GgxE_-1" value="Regisztráció" style="rounded=1;whiteSpace=wrap;html=1;" vertex="1" parent="1">
          <mxGeometry x="330" y="220" width="120" height="60" as="geometry" />
        </mxCell>
        <mxCell id="achzAib0qAq2A53GgxE_-2" value="Bejelentkezés" style="rounded=1;whiteSpace=wrap;html=1;" vertex="1" parent="1">
          <mxGeometry x="500" y="220" width="120" height="60" as="geometry" />
        </mxCell>
        <mxCell id="achzAib0qAq2A53GgxE_-3" value="" style="endArrow=none;html=1;rounded=0;exitX=0.5;exitY=0;exitDx=0;exitDy=0;" edge="1" parent="1" source="Zg42Y_eCuo0xbQlqRmkv-2">
          <mxGeometry width="50" height="50" relative="1" as="geometry">
            <mxPoint x="140" y="210" as="sourcePoint" />
            <mxPoint x="210" y="180" as="targetPoint" />
          </mxGeometry>
        </mxCell>
        <mxCell id="achzAib0qAq2A53GgxE_-4" value="" style="endArrow=none;html=1;rounded=0;exitX=0.5;exitY=0;exitDx=0;exitDy=0;" edge="1" parent="1">
          <mxGeometry width="50" height="50" relative="1" as="geometry">
            <mxPoint x="389.65999999999997" y="220" as="sourcePoint" />
            <mxPoint x="389.65999999999997" y="180" as="targetPoint" />
          </mxGeometry>
        </mxCell>
        <mxCell id="achzAib0qAq2A53GgxE_-5" value="" style="endArrow=none;html=1;rounded=0;exitX=0.5;exitY=0;exitDx=0;exitDy=0;" edge="1" parent="1">
          <mxGeometry width="50" height="50" relative="1" as="geometry">
            <mxPoint x="559.6600000000001" y="220" as="sourcePoint" />
            <mxPoint x="559.6600000000001" y="180" as="targetPoint" />
          </mxGeometry>
        </mxCell>
        <mxCell id="achzAib0qAq2A53GgxE_-6" value="" style="endArrow=none;html=1;rounded=0;" edge="1" parent="1">
          <mxGeometry width="50" height="50" relative="1" as="geometry">
            <mxPoint x="210" y="180" as="sourcePoint" />
            <mxPoint x="560" y="180" as="targetPoint" />
          </mxGeometry>
        </mxCell>
        <mxCell id="achzAib0qAq2A53GgxE_-7" value="" style="endArrow=none;html=1;rounded=0;entryX=0.5;entryY=1;entryDx=0;entryDy=0;" edge="1" parent="1" target="IYNmw7wEzGc-1rU78w_l-1">
          <mxGeometry width="50" height="50" relative="1" as="geometry">
            <mxPoint x="390" y="180" as="sourcePoint" />
            <mxPoint x="200" y="150" as="targetPoint" />
          </mxGeometry>
        </mxCell>
        <mxCell id="2KdpBngvNeFbLivzi67n-1" value="MENU04" style="text;html=1;align=center;verticalAlign=middle;whiteSpace=wrap;rounded=0;" vertex="1" parent="1">
          <mxGeometry x="220" y="270" width="60" height="30" as="geometry" />
        </mxCell>
        <mxCell id="2KdpBngvNeFbLivzi67n-2" value="MENU08" style="text;html=1;align=center;verticalAlign=middle;whiteSpace=wrap;rounded=0;" vertex="1" parent="1">
          <mxGeometry x="400" y="270" width="60" height="30" as="geometry" />
        </mxCell>
        <mxCell id="Y5lxy_39GLHen1H9qaXw-1" value="MENU09" style="text;html=1;align=center;verticalAlign=middle;whiteSpace=wrap;rounded=0;" vertex="1" parent="1">
          <mxGeometry x="570" y="270" width="60" height="30" as="geometry" />
        </mxCell>
      </root>
    </mxGraphModel>
  </diagram>
  <diagram id="9GNiy4QuXtQ0dXeQYq0X" name="Admin">
    <mxGraphModel grid="1" page="1" gridSize="10" guides="1" tooltips="1" connect="1" arrows="1" fold="1" pageScale="1" pageWidth="827" pageHeight="1169" math="0" shadow="0">
      <root>
        <mxCell id="0" />
        <mxCell id="1" parent="0" />
        <mxCell id="NO5XObGEabhMuHuJffTi-1" value="&lt;div&gt;Admin&lt;/div&gt;&lt;div&gt;főmenü&lt;/div&gt;" style="rounded=0;whiteSpace=wrap;html=1;" vertex="1" parent="1">
          <mxGeometry x="340" y="90" width="120" height="60" as="geometry" />
        </mxCell>
        <mxCell id="QPlEVbD2VOw9pe8V_kbk-22" value="Saját fiók" style="rounded=0;whiteSpace=wrap;html=1;" vertex="1" parent="1">
          <mxGeometry x="607" y="250" width="120" height="60" as="geometry" />
        </mxCell>
        <mxCell id="QPlEVbD2VOw9pe8V_kbk-23" value="Kijelentkezés" style="rounded=1;whiteSpace=wrap;html=1;" vertex="1" parent="1">
          <mxGeometry x="517" y="400" width="120" height="60" as="geometry" />
        </mxCell>
        <mxCell id="QPlEVbD2VOw9pe8V_kbk-24" value="Fiók adatok" style="rounded=1;whiteSpace=wrap;html=1;" vertex="1" parent="1">
          <mxGeometry x="697" y="400" width="120" height="60" as="geometry" />
        </mxCell>
        <mxCell id="QPlEVbD2VOw9pe8V_kbk-25" value="" style="endArrow=none;html=1;rounded=0;entryX=0.5;entryY=1;entryDx=0;entryDy=0;" edge="1" parent="1" target="QPlEVbD2VOw9pe8V_kbk-22">
          <mxGeometry width="50" height="50" relative="1" as="geometry">
            <mxPoint x="667" y="370" as="sourcePoint" />
            <mxPoint x="707" y="340" as="targetPoint" />
          </mxGeometry>
        </mxCell>
        <mxCell id="QPlEVbD2VOw9pe8V_kbk-26" value="" style="endArrow=none;html=1;rounded=0;" edge="1" parent="1">
          <mxGeometry width="50" height="50" relative="1" as="geometry">
            <mxPoint x="577" y="370" as="sourcePoint" />
            <mxPoint x="757" y="370" as="targetPoint" />
          </mxGeometry>
        </mxCell>
        <mxCell id="QPlEVbD2VOw9pe8V_kbk-27" value="" style="endArrow=none;html=1;rounded=0;exitX=0.5;exitY=0;exitDx=0;exitDy=0;" edge="1" parent="1" source="QPlEVbD2VOw9pe8V_kbk-23">
          <mxGeometry width="50" height="50" relative="1" as="geometry">
            <mxPoint x="407" y="440" as="sourcePoint" />
            <mxPoint x="577" y="370" as="targetPoint" />
          </mxGeometry>
        </mxCell>
        <mxCell id="QPlEVbD2VOw9pe8V_kbk-28" value="" style="endArrow=none;html=1;rounded=0;exitX=0.5;exitY=0;exitDx=0;exitDy=0;" edge="1" parent="1">
          <mxGeometry width="50" height="50" relative="1" as="geometry">
            <mxPoint x="756.66" y="400" as="sourcePoint" />
            <mxPoint x="756.66" y="370" as="targetPoint" />
          </mxGeometry>
        </mxCell>
        <mxCell id="QPlEVbD2VOw9pe8V_kbk-29" value="&lt;div&gt;MENU02&lt;/div&gt;" style="text;html=1;align=center;verticalAlign=middle;whiteSpace=wrap;rounded=0;" vertex="1" parent="1">
          <mxGeometry x="137" y="300" width="60" height="30" as="geometry" />
        </mxCell>
        <mxCell id="QPlEVbD2VOw9pe8V_kbk-30" value="MENU11" style="text;html=1;align=center;verticalAlign=middle;whiteSpace=wrap;rounded=0;" vertex="1" parent="1">
          <mxGeometry x="317" y="300" width="60" height="30" as="geometry" />
        </mxCell>
        <mxCell id="QPlEVbD2VOw9pe8V_kbk-31" value="MENU04" style="text;html=1;align=center;verticalAlign=middle;whiteSpace=wrap;rounded=0;" vertex="1" parent="1">
          <mxGeometry x="497" y="300" width="60" height="30" as="geometry" />
        </mxCell>
        <mxCell id="QPlEVbD2VOw9pe8V_kbk-32" value="MENU05" style="text;html=1;align=center;verticalAlign=middle;whiteSpace=wrap;rounded=0;" vertex="1" parent="1">
          <mxGeometry x="677" y="300" width="60" height="30" as="geometry" />
        </mxCell>
        <mxCell id="QPlEVbD2VOw9pe8V_kbk-33" value="MENU06" style="text;html=1;align=center;verticalAlign=middle;whiteSpace=wrap;rounded=0;" vertex="1" parent="1">
          <mxGeometry x="767" y="450" width="60" height="30" as="geometry" />
        </mxCell>
        <mxCell id="QPlEVbD2VOw9pe8V_kbk-34" value="DIAL01" style="text;html=1;align=center;verticalAlign=middle;whiteSpace=wrap;rounded=0;" vertex="1" parent="1">
          <mxGeometry x="587" y="450" width="60" height="30" as="geometry" />
        </mxCell>
        <mxCell id="QPlEVbD2VOw9pe8V_kbk-35" value="" style="endArrow=none;html=1;rounded=0;exitX=0.5;exitY=0;exitDx=0;exitDy=0;" edge="1" parent="1">
          <mxGeometry width="50" height="50" relative="1" as="geometry">
            <mxPoint x="127" y="250" as="sourcePoint" />
            <mxPoint x="127" y="210" as="targetPoint" />
          </mxGeometry>
        </mxCell>
        <mxCell id="QPlEVbD2VOw9pe8V_kbk-36" value="" style="endArrow=none;html=1;rounded=0;exitX=0.5;exitY=0;exitDx=0;exitDy=0;" edge="1" parent="1">
          <mxGeometry width="50" height="50" relative="1" as="geometry">
            <mxPoint x="306.65999999999997" y="250" as="sourcePoint" />
            <mxPoint x="306.65999999999997" y="210" as="targetPoint" />
          </mxGeometry>
        </mxCell>
        <mxCell id="QPlEVbD2VOw9pe8V_kbk-37" value="" style="endArrow=none;html=1;rounded=0;exitX=0.5;exitY=0;exitDx=0;exitDy=0;" edge="1" parent="1">
          <mxGeometry width="50" height="50" relative="1" as="geometry">
            <mxPoint x="487" y="250" as="sourcePoint" />
            <mxPoint x="487" y="210" as="targetPoint" />
          </mxGeometry>
        </mxCell>
        <mxCell id="QPlEVbD2VOw9pe8V_kbk-38" value="" style="endArrow=none;html=1;rounded=0;exitX=0.5;exitY=0;exitDx=0;exitDy=0;" edge="1" parent="1">
          <mxGeometry width="50" height="50" relative="1" as="geometry">
            <mxPoint x="666.6600000000001" y="250" as="sourcePoint" />
            <mxPoint x="666.6600000000001" y="210" as="targetPoint" />
          </mxGeometry>
        </mxCell>
        <mxCell id="QPlEVbD2VOw9pe8V_kbk-39" value="" style="endArrow=none;html=1;rounded=0;" edge="1" parent="1">
          <mxGeometry width="50" height="50" relative="1" as="geometry">
            <mxPoint x="127" y="210" as="sourcePoint" />
            <mxPoint x="667" y="210" as="targetPoint" />
          </mxGeometry>
        </mxCell>
        <mxCell id="QPlEVbD2VOw9pe8V_kbk-40" value="Könyvjelzők" style="rounded=1;whiteSpace=wrap;html=1;" vertex="1" parent="1">
          <mxGeometry x="67" y="250" width="120" height="60" as="geometry" />
        </mxCell>
        <mxCell id="QPlEVbD2VOw9pe8V_kbk-41" value="Összes fájl" style="rounded=1;whiteSpace=wrap;html=1;" vertex="1" parent="1">
          <mxGeometry x="247" y="250" width="120" height="60" as="geometry" />
        </mxCell>
        <mxCell id="QPlEVbD2VOw9pe8V_kbk-42" value="Publikus fájlok" style="rounded=1;whiteSpace=wrap;html=1;" vertex="1" parent="1">
          <mxGeometry x="427" y="250" width="120" height="60" as="geometry" />
        </mxCell>
        <mxCell id="QPlEVbD2VOw9pe8V_kbk-43" value="" style="endArrow=none;html=1;rounded=0;exitX=0.5;exitY=1;exitDx=0;exitDy=0;" edge="1" parent="1" source="NO5XObGEabhMuHuJffTi-1">
          <mxGeometry width="50" height="50" relative="1" as="geometry">
            <mxPoint x="210" y="210" as="sourcePoint" />
            <mxPoint x="400" y="210" as="targetPoint" />
          </mxGeometry>
        </mxCell>
        <mxCell id="cM1YMqBC-2Arszk6kAWc-1" value="MENU10" style="text;html=1;align=center;verticalAlign=middle;whiteSpace=wrap;rounded=0;" vertex="1" parent="1">
          <mxGeometry x="410" y="140" width="60" height="30" as="geometry" />
        </mxCell>
      </root>
    </mxGraphModel>
  </diagram>
</mxfile>
